<svg width="113" height="31" viewBox="0 0 113 31" fill="none" xmlns="http://www.w3.org/2000/svg">
  <g clip-path="url(#clip0_226_57)">
    <path d="M5.41738 11.9779C4.37333 11.9779 3.37864 12.0014 2.38774 11.9701C1.46898 11.9427 0.774217 11.4743 0.39836 10.6101C0.0225037 9.74979 0.145891 8.90909 0.713473 8.16441C1.19943 7.52556 1.89609 7.36487 2.63262 7.35311C3.5343 7.33743 4.43597 7.34919 5.43446 7.34919C5.43446 6.83968 5.43446 6.36544 5.43446 5.8912C5.43446 4.86237 5.41927 3.83355 5.43826 2.80472C5.47053 1.09785 6.75186 0.106255 8.26667 0.602052C9.07913 0.866607 9.64671 1.63284 9.6619 2.56564C9.68278 3.77084 9.67709 4.97799 9.65621 6.18319C9.65241 6.36544 9.54041 6.581 9.41512 6.72014C7.76553 8.52891 7.85665 11.1353 9.65431 12.8108C9.84224 12.9872 9.85363 13.1185 9.83085 13.3732C9.74922 14.2805 9.70936 15.1957 9.70366 16.107C9.69227 18.535 9.70936 20.9611 9.71315 23.3891C9.71695 25.0646 10.6148 26.0307 12.2454 26.0581C13.9102 26.0856 15.5769 26.066 17.2436 26.0856C17.6137 26.0895 17.9934 26.1267 18.3503 26.2228C19.3317 26.4814 19.9334 27.3613 19.867 28.3686C19.7948 29.4445 19.0773 30.3655 18.0731 30.3812C15.6642 30.4184 13.242 30.5105 10.8502 30.2812C8.04837 30.0147 5.81411 27.4515 5.51039 24.5374C5.44775 23.9319 5.41927 23.3205 5.41738 22.711C5.40789 19.2875 5.41358 15.862 5.41358 12.4385C5.41738 12.3091 5.41738 12.1817 5.41738 11.9779Z" fill="#010203"></path>
    <path d="M14.1516 11.9305C13.5441 11.9305 12.9386 11.9402 12.3311 11.9285C11.0403 11.905 10.0798 10.9369 10.0779 9.66899C10.0741 8.37561 11.0403 7.38206 12.3444 7.36638C13.5422 7.35266 14.74 7.3507 15.9359 7.36638C17.1964 7.38402 18.1778 8.40501 18.1702 9.65723C18.1626 10.933 17.2078 11.903 15.9246 11.9265C15.3342 11.9383 14.7419 11.9305 14.1516 11.9305Z" fill="#0C958E"></path>
    <path d="M25.8069 21.4962C25.8467 22.4525 25.8144 23.3265 25.9378 24.175C26.0802 25.1509 26.8965 25.8349 27.9367 25.9975C28.3107 26.0563 28.6941 26.07 29.0719 26.072C32.409 26.0779 35.7443 26.07 39.0814 26.0818C39.5636 26.0837 40.0571 26.1092 40.526 26.215C41.608 26.458 42.2307 27.4183 42.0959 28.549C41.9554 29.717 41.1866 30.4421 40.0533 30.4362C35.8316 30.4146 31.6099 30.3911 27.3881 30.348C24.4401 30.3186 22.0787 28.1865 21.7237 25.1647C21.5604 23.7635 21.5471 22.3408 21.5358 20.9259C21.5168 18.7252 21.4769 16.5186 21.5946 14.3238C21.7635 11.1961 24.275 8.17042 27.7924 8.2684C30.6417 8.34875 33.4948 8.28016 36.3441 8.28604C39.6794 8.29192 42.5211 10.9884 42.6445 14.2552C42.7944 18.2803 40.4463 21.263 36.7788 21.4256C33.4702 21.5726 30.1501 21.4824 26.8357 21.4981C26.5434 21.4962 26.251 21.4962 25.8069 21.4962ZM32.3255 12.7306C32.3255 12.7149 32.3255 12.7012 32.3255 12.6855C31.0594 12.6855 29.7932 12.6777 28.5271 12.6894C28.1702 12.6933 27.8095 12.7266 27.4602 12.7952C26.4409 12.9932 25.7784 13.8005 25.7537 14.8411C25.7252 16.0424 26.27 16.8361 27.3501 17.1006C27.7355 17.1947 28.1417 17.2339 28.5404 17.2378C30.059 17.2535 31.5795 17.2711 33.0981 17.2358C34.256 17.2084 35.4178 17.1535 36.5662 17.0124C37.8153 16.8576 38.4512 16.0404 38.3772 14.8607C38.288 13.4419 37.6065 12.7502 36.2492 12.7345C34.9413 12.7188 33.6334 12.7306 32.3255 12.7306Z" fill="#010203"></path>
    <path d="M108.384 17.2209C108.384 16.3861 108.444 15.6218 108.37 14.8732C108.237 13.5132 107.226 12.6765 105.753 12.6686C102.186 12.649 98.6189 12.6529 95.0501 12.6392C94.6933 12.6373 94.3326 12.6118 93.9795 12.5569C92.7039 12.359 92.0774 11.5359 92.1591 10.1916C92.2312 9.01187 93.0323 8.28092 94.2946 8.28484C98.4936 8.30051 102.694 8.31227 106.893 8.35343C109.765 8.38086 112.269 10.4679 112.482 13.5309C112.746 17.3209 112.75 21.152 112.535 24.9459C112.374 27.809 110.064 30.0332 107.425 30.384C106.406 30.5192 105.362 30.4526 104.327 30.4546C102.153 30.4565 99.978 30.4565 97.8045 30.433C94.5053 30.3958 91.9161 27.9246 91.5782 24.5109C91.246 21.1442 93.2923 18.1459 96.4719 17.4208C97.1648 17.2621 97.8956 17.2366 98.6075 17.2327C101.605 17.2131 104.602 17.2248 107.6 17.2248C107.833 17.2209 108.063 17.2209 108.384 17.2209ZM102.005 25.9865C102.005 25.9944 102.005 26.0002 102.005 26.0081C103.399 26.0081 104.792 26.0238 106.183 26.0042C107.292 25.9885 108.12 25.4025 108.403 24.4893C108.851 23.0451 108.057 21.6145 106.559 21.5812C103.613 21.5126 100.66 21.5988 97.7115 21.7027C96.4947 21.7458 95.8018 22.6414 95.855 23.8152C95.9176 25.2066 96.6504 25.9748 97.9526 25.9846C99.3041 25.9944 100.654 25.9865 102.005 25.9865Z" fill="#010203"></path>
    <path d="M80.564 8.32625C82.654 8.32625 84.744 8.32037 86.834 8.32821C88.1723 8.33408 89.1043 9.20418 89.11 10.427C89.1157 11.6557 88.1988 12.5454 86.8492 12.5493C82.9425 12.563 79.034 12.5513 75.1274 12.5572C74.0966 12.5591 73.1836 12.857 72.709 13.8976C72.0332 15.3811 72.9577 17.0605 74.5522 17.1408C76.3423 17.231 78.138 17.1644 79.9319 17.1996C81.2797 17.2251 82.6464 17.1761 83.9695 17.3878C87.0485 17.8777 89.2391 20.7917 89.1385 24.0741C89.0398 27.2743 86.6271 29.9923 83.5595 30.351C83.121 30.4019 82.6749 30.4293 82.2345 30.4293C78.3905 30.4215 74.5484 30.4098 70.7044 30.3862C69.1554 30.3764 68.2253 29.3065 68.4645 27.8485C68.641 26.7765 69.4762 26.1416 70.7519 26.1396C74.2789 26.1338 77.8058 26.1377 81.3328 26.1377C81.7334 26.1377 82.1358 26.1298 82.5363 26.1161C84.0606 26.0691 84.9851 25.1853 84.9699 23.7998C84.9547 22.4359 83.9866 21.5129 82.4946 21.4991C80.1293 21.4795 77.7641 21.4972 75.3988 21.4913C73.9239 21.4874 72.5021 21.2797 71.2284 20.4154C68.8612 18.8085 67.8077 15.8102 68.6334 12.9648C69.4592 10.1193 71.7902 8.32625 74.6699 8.32233C76.6384 8.32429 78.6012 8.32429 80.564 8.32625Z" fill="#010203"></path>
    <path d="M57.3391 8.32664C59.4709 8.32664 61.6045 8.31096 63.7363 8.33252C65.1904 8.3482 66.0731 9.44561 65.8263 10.8703C65.6611 11.8286 64.8942 12.4949 63.835 12.5399C62.9485 12.5772 62.062 12.5536 61.1736 12.5556C58.1953 12.5576 55.2188 12.5536 52.2404 12.5595C51.8835 12.5595 51.5229 12.5928 51.1717 12.6575C49.896 12.8927 49.2658 13.7432 49.3247 15.1091C49.3721 16.2045 50.1827 17.0726 51.3406 17.151C52.3505 17.2196 53.3661 17.1843 54.3778 17.2039C56.3805 17.2412 58.3927 17.1804 60.3859 17.347C62.8327 17.5528 64.5317 18.9892 65.4504 21.3134C66.3901 23.6885 66.037 25.9382 64.5089 27.9527C63.1592 29.7321 61.3046 30.4356 59.1672 30.4297C55.2605 30.4219 51.3539 30.4141 47.4492 30.3827C45.8394 30.369 44.8239 28.9972 45.3041 27.551C45.5832 26.7123 46.5209 26.14 47.6694 26.1381C51.1546 26.1322 54.6379 26.1361 58.1231 26.1342C58.5445 26.1342 58.9678 26.1283 59.3893 26.1126C60.8206 26.0616 61.7507 25.1798 61.7659 23.8649C61.7811 22.5146 60.8509 21.5348 59.4215 21.5035C57.6068 21.4623 55.7883 21.5133 53.9735 21.4839C52.7301 21.4643 51.4716 21.4878 50.251 21.2918C47.0297 20.7745 44.8694 17.6821 45.1788 14.1861C45.4693 10.8879 48.142 8.33448 51.3273 8.32272C53.3281 8.32076 55.3327 8.32468 57.3391 8.32664Z" fill="#010203"></path>
  </g>
  <defs>
    <clipPath id="clip0_226_57">
      <rect width="113" height="31" fill="white"></rect>
    </clipPath>
  </defs>
</svg>
